<?xml version="1.0" standalone="no"?>
<!DOCTYPE svg PUBLIC "-//W3C//DTD SVG 20010904//EN"
 "http://www.w3.org/TR/2001/REC-SVG-20010904/DTD/svg10.dtd">
<svg version="1.0" xmlns="http://www.w3.org/2000/svg"
 width="461.000000pt" height="242.000000pt" viewBox="0 0 461.000000 242.000000"
 preserveAspectRatio="xMidYMid meet">

<g transform="translate(0.000000,242.000000) scale(0.100000,-0.100000)"
fill="#000000" stroke="none">
<path d="M295 2331 c-106 -54 -195 -158 -233 -276 -32 -98 -55 -252 -56 -380
-1 -118 0 -122 33 -190 39 -79 115 -161 182 -196 38 -20 62 -24 170 -27 l127
-4 6 -45 c10 -71 7 -147 -9 -288 -23 -205 -35 -266 -53 -272 -22 -9 -72 52
-122 148 -51 97 -63 111 -98 103 -44 -11 -47 -21 -17 -60 15 -20 43 -72 61
-117 53 -127 114 -174 187 -143 70 29 93 100 108 336 6 91 13 202 15 247 l6
82 211 115 c117 63 223 117 236 121 21 6 23 5 18 -16 -42 -174 -58 -494 -37
-754 11 -137 4 -250 -17 -271 -8 -8 -33 -14 -55 -14 -36 0 -47 6 -85 46 -56
58 -86 58 -91 0 -7 -81 51 -170 120 -185 47 -11 123 2 155 25 39 29 54 85 60
222 6 116 8 125 35 159 15 20 38 52 51 72 l22 36 11 -90 c19 -148 47 -202 129
-250 93 -55 184 -55 236 1 23 25 24 31 27 200 3 157 2 181 -18 237 l-21 62 62
58 c38 35 71 57 85 57 69 0 84 -35 95 -224 10 -184 16 -228 33 -251 13 -17 14
-17 30 7 13 19 19 68 26 214 12 218 26 280 71 319 39 32 57 29 81 -11 15 -26
19 -61 22 -220 5 -211 19 -279 63 -313 56 -45 108 -13 168 100 l38 72 19 -26
c38 -53 132 -44 186 17 16 19 46 75 67 125 21 51 42 94 46 97 4 2 17 -27 29
-65 23 -77 40 -94 123 -125 52 -20 96 -52 126 -95 32 -44 67 -184 86 -336 21
-162 27 -185 54 -185 23 0 33 42 51 210 23 212 81 615 93 639 7 15 28 31 52
40 22 8 128 52 236 97 108 45 234 94 280 109 183 57 678 229 737 255 37 18 62
35 62 44 0 9 -5 16 -10 16 -6 0 -104 -31 -218 -70 -114 -38 -324 -107 -467
-153 -176 -57 -310 -108 -415 -157 -166 -77 -239 -98 -226 -64 4 10 10 69 13
129 6 109 5 111 -21 142 -51 60 -147 61 -219 2 -83 -68 -123 -239 -77 -334 33
-68 87 -89 169 -65 19 5 37 8 39 5 3 -2 -9 -98 -27 -212 -17 -114 -34 -236
-38 -271 -3 -35 -9 -59 -13 -55 -4 4 -15 35 -25 68 -44 155 -98 228 -215 289
-37 20 -72 42 -79 49 -24 30 -52 176 -61 327 -6 85 -14 187 -19 225 -18 125
-23 213 -16 253 l6 39 127 27 c232 49 462 120 462 143 0 4 -10 21 -23 36 l-22
28 -180 -54 c-99 -30 -216 -69 -259 -86 -58 -24 -82 -29 -90 -21 -7 7 -10 51
-8 121 l2 109 -29 0 c-48 0 -56 -21 -54 -140 l3 -107 -45 -13 c-48 -13 -85
-49 -85 -82 0 -27 20 -31 67 -14 56 20 63 9 63 -89 0 -44 5 -171 12 -283 12
-198 11 -204 -10 -280 -59 -205 -159 -321 -196 -229 -21 49 -27 98 -35 285 -8
178 -14 202 -53 202 -20 0 -20 -4 -13 -152 9 -210 -4 -310 -53 -408 -27 -55
-43 -76 -59 -78 -37 -5 -45 30 -55 238 -10 242 -12 253 -49 295 -40 45 -60 50
-112 27 -37 -17 -97 -75 -97 -95 0 -3 -5 -18 -10 -32 l-10 -27 -45 41 c-40 37
-50 41 -96 41 -47 0 -54 -3 -107 -54 -56 -52 -59 -53 -129 -60 -145 -13 -246
-73 -327 -195 -26 -39 -51 -71 -56 -71 -18 0 -24 73 -23 280 2 362 22 444 134
542 33 30 59 61 59 72 0 46 -155 -16 -343 -138 -48 -30 -106 -65 -129 -77 -62
-32 -201 -89 -215 -89 -10 0 -13 23 -12 88 2 132 2 133 91 162 92 30 130 56
169 118 40 64 86 186 99 265 22 141 -30 228 -181 300 -104 50 -177 67 -304 74
-108 5 -111 4 -170 -26z m255 -106 c174 -30 225 -46 271 -84 33 -28 34 -30 33
-102 -1 -93 -16 -145 -57 -206 -37 -53 -139 -141 -176 -150 -30 -7 -41 10 -41
69 0 56 -14 98 -34 98 -19 0 -23 -31 -16 -118 3 -40 3 -75 1 -78 -2 -2 -19 -4
-37 -4 -46 0 -48 -12 -9 -50 l35 -34 0 -97 c0 -54 -3 -104 -6 -113 -8 -20 -36
-20 -93 -1 -24 9 -64 18 -90 22 -56 7 -120 46 -182 110 -78 81 -79 85 -79 209
0 138 23 234 86 363 69 140 145 206 224 195 14 -2 90 -15 170 -29z m2668 -840
c16 -15 18 -177 2 -234 -13 -50 -22 -57 -99 -72 l-63 -13 -24 27 c-64 75 5
293 98 310 31 5 70 -3 86 -18z m-1687 -511 c29 -59 33 -77 37 -174 4 -106 4
-109 -21 -134 -23 -23 -34 -26 -95 -26 l-69 0 -37 108 c-40 117 -45 175 -20
211 17 24 125 80 156 81 11 0 28 -23 49 -66z"/>
<path d="M3107 1700 c-52 -10 -87 -30 -87 -50 0 -41 195 -29 239 14 13 13 20
29 17 35 -8 12 -109 13 -169 1z"/>
<path d="M2297 1543 c-13 -12 -7 -81 7 -86 16 -6 76 28 76 43 0 30 -64 63 -83
43z"/>
</g>
</svg>
